<svg width="80" height="80" xmlns="http://www.w3.org/2000/svg">

 <g>
  <title>background</title>
  <rect fill="none" id="canvas_background" height="402" width="582" y="-1" x="-1"/>
 </g>
 <g>
  <title>Layer 1</title>
  <path id="svg_1" d="m75.432,21.297l-2.677,51.459l-50.194,2.677l52.871,-54.136z" fill="#726189"/>
  <path id="svg_2" d="m74.864,22.595l-2.585,49.685l-48.465,2.585l51.05,-52.27m1.136,-2.595l-54.692,56l51.923,-2.769l2.769,-53.231l0,0z" fill="#000000"/>
  <path id="svg_3" d="m72.245,72.537l-24.022,-24.107l27.211,-26.563l-2.672,50.767l-0.517,-0.097z" fill="#8d77ab"/>
  <path id="svg_4" d="m74.867,23.119l-2.567,48.766l-23.366,-23.45l25.933,-25.316m1.133,-2.504l-28.488,27.81l24.488,24.575l1.231,0.231l2.769,-52.616l0,0z" fill="#000000"/>
  <path id="svg_5" d="m19.098,75.5c-4.559,0 -8.171,-1.3 -10.734,-3.863c-8.9,-8.9 -1.949,-30.333 15.495,-47.778c11.94,-11.941 26.135,-19.359 37.043,-19.359c4.559,0 8.171,1.3 10.734,3.863c8.9,8.9 1.949,30.333 -15.495,47.778c-11.94,11.941 -26.135,19.359 -37.043,19.359z" fill="#a68dc9"/>
  <path id="svg_6" d="m60.903,4l0,1c4.421,0 7.913,1.251 10.38,3.717c8.705,8.705 1.754,29.821 -15.495,47.071c-11.851,11.85 -25.909,19.212 -36.69,19.212c-4.422,0 -7.915,-1.251 -10.381,-3.717c-8.705,-8.705 -1.754,-29.821 15.495,-47.071c11.85,-11.85 25.909,-19.211 36.69,-19.212l0.001,-1m-0.001,0c-10.626,0.001 -25.006,7.114 -37.397,19.505c-17.668,17.668 -24.605,39.375 -15.495,48.485c2.72,2.721 6.563,4.01 11.088,4.01c10.626,0 25.006,-7.114 37.397,-19.505c17.668,-17.668 24.605,-39.375 15.495,-48.485c-2.72,-2.721 -6.563,-4.01 -11.088,-4.01l0,0z" fill="#000000"/>
  <g id="svg_7">
   <path id="svg_8" d="m12.16,48.859l-7.66,11.49l0,-20.216l7.901,-13.827l13.895,-13.895l15.822,-7.911l18.812,0l-7.837,7.689l20.485,7.804l-26.195,9.702l7.837,25.469l-25.524,-9.816l-9.678,28.067l-7.858,-24.556z" fill="#ffd38f"/>
   <path id="svg_9" d="m59.707,5l-6.407,6.286l-1.114,1.093l1.458,0.555l18.512,7.052l-24.504,9.075l-0.886,0.328l0.278,0.904l7.395,24.034l-24.08,-9.262l-0.967,-0.372l-0.338,0.979l-9.019,26.158l-7.083,-22.134l-0.633,-1.977l-1.152,1.728l-6.167,9.25l0,-18.431l7.802,-13.653l13.791,-13.791l15.643,-7.822l17.471,0m2.447,-1l-20.154,0l-16,8l-14,14l-8,14l0,22l8,-12l8,25l10,-29l26,10l-8,-26l27,-10l-21,-8l8.154,-8l0,0z" fill="#ffd38f"/>
  </g>
  <g id="svg_10">
   <path id="svg_11" d="m4.603,39.953l7.798,-13.647l13.895,-13.895l15.668,-7.834l11.441,7.627l-5.837,17.511l-17.803,15.825l-17.569,3.904l-7.593,-9.491z" fill="#febd59"/>
   <path id="svg_12" d="m41.928,5.154l10.882,7.254l-5.674,17.022l-17.606,15.65l-17.138,3.809l-7.186,-8.983l7.596,-13.294l13.791,-13.791l15.335,-7.667m0.072,-1.154l-16,8l-14,14l-8,14l8,10l18,-4l18,-16l6,-18l-12,-8l0,0z" fill="#febd59"/>
  </g>
  <line stroke-linecap="null" stroke-linejoin="null" id="svg_13" y2="36.453125" x2="4.5" y1="59.453125" x1="5.5" stroke-opacity="null" stroke-width="null" stroke="null" fill="none"/>
  <line stroke-linecap="null" stroke-linejoin="null" id="svg_14" y2="44.453125" x2="2.5" y1="60.453125" x1="3.5" stroke-opacity="null" stroke-width="NaN" stroke="null" fill="none"/>
  <rect stroke="null" id="svg_16" height="0.999981" width="20.499607" y="4.057331" x="41.874198" stroke-opacity="null" stroke-width="2" fill="#000000"/>
  <rect stroke="null" transform="rotate(-26 33.97632217407225,8.515700340271005) " id="svg_17" height="0.999981" width="18.265601" y="8.01571" x="24.84352" stroke-opacity="null" stroke-width="2" fill="#000000"/>
  <rect stroke="null" transform="rotate(-43 18.96439552307129,19.0015811920166) " id="svg_18" height="0.999981" width="19.324474" y="18.501591" x="9.302159" stroke-opacity="null" stroke-width="2" fill="#000000"/>
  <rect stroke="null" transform="rotate(-62 8.140807151794428,32.662330627441406) " id="svg_19" height="0.999981" width="16.825219" y="32.162338" x="-0.271803" stroke-opacity="null" stroke-width="2" fill="#000000"/>
  <rect stroke="null" transform="rotate(-91 4.390885353088389,50.911972045898445) " id="svg_20" height="0.999981" width="22.075118" y="50.411984" x="-6.646673" stroke-opacity="null" stroke-width="2" fill="#000000"/>
 </g>
</svg>